<?xml version="1.0" encoding="UTF-8" standalone="no"?>
<!-- Created with Inkscape (http://www.inkscape.org/) -->

<svg
   width="600"
   height="256"
   viewBox="0 0 158.74999 67.733333"
   version="1.1"
   id="svg1"
   xml:space="preserve"
   inkscape:version="1.3.1 (9b9bdc1480, 2023-11-25, custom)"
   sodipodi:docname="innup-text-logo.svg"
   xmlns:inkscape="http://www.inkscape.org/namespaces/inkscape"
   xmlns:sodipodi="http://sodipodi.sourceforge.net/DTD/sodipodi-0.dtd"
   xmlns="http://www.w3.org/2000/svg"
   xmlns:svg="http://www.w3.org/2000/svg"><sodipodi:namedview
     id="namedview1"
     pagecolor="#ffffff"
     bordercolor="#000000"
     borderopacity="0.25"
     inkscape:showpageshadow="2"
     inkscape:pageopacity="0.0"
     inkscape:pagecheckerboard="0"
     inkscape:deskcolor="#d1d1d1"
     inkscape:document-units="mm"
     inkscape:zoom="1.4142136"
     inkscape:cx="274.71098"
     inkscape:cy="283.54981"
     inkscape:window-width="1920"
     inkscape:window-height="1016"
     inkscape:window-x="0"
     inkscape:window-y="27"
     inkscape:window-maximized="1"
     inkscape:current-layer="layer1" /><defs
     id="defs1" /><g
     inkscape:label="Layer 1"
     inkscape:groupmode="layer"
     id="layer1"><rect
       style="fill:#788088;fill-opacity:1;stroke-width:0.057307"
       id="rect5"
       width="21.544899"
       height="21.544899"
       x="-28.867088"
       y="32.067932"
       transform="rotate(-46.581041)" /><rect
       style="fill:#788088;fill-opacity:1;stroke-width:0.057307"
       id="rect8"
       width="21.544899"
       height="21.544899"
       x="-5.8397942"
       y="55.008213"
       transform="rotate(-46.581041)" /><rect
       style="fill:#2067b1;fill-opacity:1;stroke-width:0.057307"
       id="rect6"
       width="21.544899"
       height="21.544899"
       x="-5.2766337"
       y="31.619091"
       transform="rotate(-46.581041)" /><path
       style="opacity:0.969843;fill:#ffffff;fill-opacity:1;stroke-width:0.188179"
       d="m 26.532917,17.977856 10.030061,3.596181 c 0.07357,-1.339963 0.175645,-2.373927 0.727865,-3.388758 0.612397,-1.125421 2.717159,-2.718731 2.717159,-2.718731 z"
       id="path9"
       sodipodi:nodetypes="ccacc" /><path
       id="rect23"
       style="fill:#788088;fill-opacity:1;stroke-width:0.057307"
       d="M 34.148182,9.9162054 26.356381,18.150159 C 30.819602,17.441533 37.262253,16.349796 40.3842,15.817397 Z" /><path
       style="font-weight:bold;font-size:16.9333px;font-family:Montserrat;-inkscape-font-specification:'Montserrat Bold';opacity:0.969843;fill:#2067b1;fill-opacity:1;stroke-width:0.407009"
       d="M 71.720088,37.021514 V 18.787535 h 4.219865 v 18.233979 z m 8.543898,0 V 18.787535 h 3.490505 L 94.512539,31.916001 H 92.819385 V 18.787535 h 4.167766 V 37.021514 H 93.522695 L 82.738599,23.893049 h 1.693154 v 13.128465 z"
       id="text1"
       aria-label="IN" /><path
       style="font-weight:bold;font-size:16.9333px;font-family:Montserrat;-inkscape-font-specification:'Montserrat Bold';opacity:0.969843;fill:#2067b1;fill-opacity:1;stroke-width:0.407009"
       d="m 126.70099,37.021516 q -3.88123,0 -6.06932,-2.16203 -2.18806,-2.162029 -2.18806,-6.173504 v -10.21103 h 4.21986 V 28.52969 q 0,2.604855 1.06799,3.75099 1.06798,1.146136 2.99559,1.146136 1.92758,0 2.99558,-1.146136 1.06798,-1.146135 1.06798,-3.75099 V 18.474952 h 4.16777 v 10.21103 q 0,4.011475 -2.18808,6.173504 -2.18807,2.16203 -6.06931,2.16203 z m 12.42511,-0.312584 v -18.23398 h 7.89271 q 2.44857,0 4.21986,0.807505 1.77131,0.781457 2.7351,2.266223 0.9638,1.484768 0.9638,3.542602 0,2.031787 -0.9638,3.516554 -0.96379,1.484767 -2.7351,2.292271 -1.77129,0.781456 -4.21986,0.781456 h -5.54835 l 1.8755,-1.901543 v 6.928912 z m 4.21986,-6.460038 -1.8755,-2.005737 h 5.31392 q 1.95363,0 2.91743,-0.833554 0.9638,-0.833554 0.9638,-2.318321 0,-1.510815 -0.9638,-2.344369 -0.9638,-0.833552 -2.91743,-0.833552 h -5.31392 l 1.8755,-2.005739 z"
       id="text2"
       aria-label="UP" /><path
       style="font-weight:bold;font-size:16.9333px;font-family:Montserrat;-inkscape-font-specification:'Montserrat Bold';opacity:0.969843;fill:#788088;fill-opacity:1;stroke-width:0.407009"
       d="m 109.64804,22.799011 q 1.6671,0 2.96954,0.677261 1.32848,0.651214 2.08388,2.031787 0.75541,1.354523 0.75541,3.490504 v 8.022951 h -4.06358 v -7.397786 q 0,-1.693154 -0.7554,-2.50066 -0.72936,-0.807505 -2.08388,-0.807505 -0.9638,0 -1.74526,0.416777 -0.7554,0.390728 -1.19823,1.224282 -0.41678,0.833554 -0.41678,2.135981 v 6.928911 h -4.06357 V 23.007399 h 3.88123 v 3.881233 l -0.72936,-1.172185 q 0.75541,-1.406621 2.16203,-2.162029 1.40662,-0.755407 3.20397,-0.755407 z"
       id="text3"
       aria-label="n" /><path
       style="font-weight:500;font-size:5.56416px;font-family:Montserrat;-inkscape-font-specification:'Montserrat Medium';opacity:0.969843;fill:#788088;fill-opacity:1;stroke-width:0.493809"
       d="m 72.797229,47.546506 v -5.991554 h 0.701867 l 3.962985,4.921634 h -0.368053 v -4.921634 h 0.855937 v 5.991554 h -0.701868 l -3.962985,-4.921634 h 0.368053 v 4.921634 z m 8.850367,0.05135 q -0.727545,0 -1.283905,-0.299578 -0.547799,-0.299577 -0.855936,-0.821698 -0.299577,-0.522122 -0.299577,-1.19831 0,-0.676191 0.291018,-1.198312 0.299578,-0.522122 0.813139,-0.813139 0.522121,-0.299579 1.172633,-0.299579 0.65907,0 1.164073,0.29102 0.505002,0.291017 0.787462,0.821698 0.291018,0.522121 0.291018,1.223989 0,0.05136 -0.0086,0.119834 0,0.06847 -0.0086,0.128387 h -3.860273 v -0.590596 h 3.432305 l -0.333817,0.205423 q 0.0086,-0.436527 -0.179746,-0.778901 -0.188305,-0.342374 -0.522121,-0.530681 -0.325256,-0.196866 -0.761783,-0.196866 -0.427968,0 -0.761783,0.196866 -0.333815,0.188307 -0.522121,0.53924 -0.188306,0.342374 -0.188306,0.787462 v 0.136955 q 0,0.453647 0.205424,0.813141 0.213984,0.350933 0.590596,0.547798 0.376613,0.196865 0.864497,0.196865 0.402289,0 0.727545,-0.136955 0.333814,-0.136956 0.582036,-0.41085 l 0.453648,0.53068 q -0.308138,0.359494 -0.770344,0.547799 -0.453646,0.188307 -1.018564,0.188307 z m 2.430844,-0.05135 1.951534,-2.533571 -0.0086,0.419407 -1.857383,-2.422299 h 0.915852 l 1.420855,1.865941 h -0.350934 l 1.420854,-1.865941 h 0.898734 l -1.88306,2.439419 0.0086,-0.436527 1.968652,2.533571 h -0.93297 l -1.497888,-1.985772 0.333814,0.05135 -1.472209,1.934416 z m 6.941627,0.05135 q -0.684749,0 -1.061361,-0.368052 -0.376612,-0.368053 -0.376612,-1.052803 v -4.159849 h 0.821698 v 4.125613 q 0,0.368053 0.179748,0.564917 0.188305,0.196866 0.53068,0.196866 0.385171,0 0.641953,-0.213984 l 0.256781,0.590596 q -0.188307,0.162628 -0.453647,0.239661 -0.256781,0.07704 -0.53924,0.07704 z m -2.208315,-3.911628 v -0.676191 h 2.893064 v 0.676191 z m 6.616376,3.860272 v -5.991554 h 0.855936 v 5.246889 h 3.243999 V 47.5465 Z m 6.927752,0.05135 q -0.72755,0 -1.28391,-0.299579 -0.5478,-0.299576 -0.85594,-0.821698 -0.299567,-0.522121 -0.299567,-1.19831 0,-0.67619 0.291017,-1.198312 0.29957,-0.522121 0.81314,-0.813139 0.52212,-0.299578 1.17263,-0.299578 0.65907,0 1.16407,0.291019 0.505,0.291018 0.78746,0.821698 0.29102,0.522122 0.29102,1.223989 0,0.05136 -0.009,0.119834 0,0.06847 -0.009,0.128387 h -3.86027 v -0.590596 h 3.4323 l -0.33381,0.205423 q 0.009,-0.436527 -0.17975,-0.778901 -0.1883,-0.342374 -0.52212,-0.530681 -0.32525,-0.196865 -0.76178,-0.196865 -0.42797,0 -0.76179,0.196865 -0.33381,0.188307 -0.52212,0.53924 -0.1883,0.342374 -0.1883,0.787462 v 0.136955 q 0,0.453647 0.20542,0.813141 0.21399,0.350933 0.5906,0.547799 0.37661,0.196864 0.86449,0.196864 0.40229,0 0.72755,-0.136955 0.33381,-0.136955 0.58204,-0.41085 l 0.45364,0.530681 q -0.30814,0.359493 -0.77034,0.547798 -0.45365,0.188307 -1.01857,0.188307 z m 4.32247,-0.05135 -1.98577,-4.536463 h 0.85593 l 1.76323,4.108495 h -0.41085 l 1.79747,-4.108495 h 0.80458 l -1.98577,4.536463 z m 5.48653,0.05135 q -0.72754,0 -1.2839,-0.299579 -0.54781,-0.299576 -0.85595,-0.821698 -0.29957,-0.522121 -0.29957,-1.19831 0,-0.67619 0.29101,-1.198312 0.29958,-0.522121 0.81314,-0.813139 0.52212,-0.299578 1.17264,-0.299578 0.65907,0 1.16408,0.291019 0.50499,0.291018 0.78745,0.821698 0.29102,0.522122 0.29102,1.223989 0,0.05136 -0.009,0.119834 0,0.06847 -0.009,0.128387 h -3.86027 v -0.590596 h 3.4323 l -0.33381,0.205423 q 0.009,-0.436527 -0.17975,-0.778901 -0.18831,-0.342374 -0.52212,-0.530681 -0.32526,-0.196865 -0.76178,-0.196865 -0.42797,0 -0.76179,0.196865 -0.33381,0.188307 -0.52211,0.53924 -0.18831,0.342374 -0.18831,0.787462 v 0.136955 q 0,0.453647 0.20542,0.813141 0.21399,0.350933 0.5906,0.547799 0.3766,0.196864 0.86449,0.196864 0.4023,0 0.72756,-0.136955 0.33381,-0.136955 0.58203,-0.41085 l 0.45364,0.530681 q -0.30813,0.359493 -0.77035,0.547798 -0.45364,0.188307 -1.01855,0.188307 z m 3.21831,-0.05135 v -6.351048 h 0.8217 V 47.5465 Z m 4.81035,0 v -5.991554 h 2.33671 q 0.78746,0 1.34382,0.248222 0.55636,0.248221 0.85592,0.718986 0.29959,0.470765 0.29959,1.121277 0,0.650511 -0.29959,1.121276 -0.29956,0.462206 -0.85592,0.718986 -0.55636,0.248222 -1.34382,0.248222 h -1.86594 l 0.38517,-0.402289 V 47.5465 Z m 0.85594,-2.131281 -0.38517,-0.427969 h 1.84025 q 0.8217,0 1.24112,-0.350933 0.42796,-0.350934 0.42796,-0.992886 0,-0.641953 -0.42796,-0.992887 -0.41942,-0.350933 -1.24112,-0.350933 h -1.84025 l 0.38517,-0.427968 z m 5.04125,2.131281 v -4.536463 h 0.78747 v 1.232549 l -0.0771,-0.308138 q 0.18831,-0.470763 0.6334,-0.718986 0.44508,-0.248222 1.0956,-0.248222 v 0.796021 q -0.0514,-0.0086 -0.10276,-0.0086 -0.0428,0 -0.0855,0 -0.65907,0 -1.04425,0.39373 -0.38517,0.393732 -0.38517,1.138396 v 2.259672 z m 3.45266,0 v -4.536463 h 0.8217 V 47.5465 Z m 0.41085,-5.409517 q -0.23967,0 -0.4023,-0.154069 -0.15406,-0.154069 -0.15406,-0.376612 0,-0.231102 0.15406,-0.385171 0.16263,-0.154068 0.4023,-0.154068 0.23967,0 0.39373,0.154068 0.16263,0.145508 0.16263,0.368053 0,0.231102 -0.15408,0.39373 -0.15406,0.154069 -0.40228,0.154069 z m 4.39952,0.830257 q 0.55635,0 0.97576,0.213984 0.42797,0.213985 0.66762,0.650513 0.23967,0.436528 0.23967,1.104157 V 47.5465 h -0.8217 v -2.516452 q 0,-0.659071 -0.32526,-0.992887 -0.31669,-0.333815 -0.89872,-0.333815 -0.43654,0 -0.76179,0.171187 -0.32526,0.171188 -0.50501,0.505003 -0.17118,0.333815 -0.17118,0.830258 V 47.5465 h -0.8217 v -4.536463 h 0.78746 v 1.22399 l -0.12845,-0.325256 q 0.22255,-0.445086 0.68475,-0.693309 0.46221,-0.248222 1.07848,-0.248222 z m 4.96442,4.630616 q -0.68476,0 -1.06137,-0.368052 -0.3766,-0.368053 -0.3766,-1.052803 v -4.159849 h 0.8217 v 4.125613 q 0,0.368053 0.17975,0.564917 0.1883,0.196866 0.53067,0.196866 0.38517,0 0.64196,-0.213984 l 0.25677,0.590596 q -0.1883,0.162628 -0.45364,0.239661 -0.25679,0.07704 -0.53924,0.07704 z m -2.20832,-3.911628 v -0.676191 h 2.89307 v 0.676191 z m 4.19409,3.860272 v -4.536463 h 0.8217 V 47.5465 Z m 0.41085,-5.409517 q -0.23967,0 -0.4023,-0.154069 -0.15406,-0.154069 -0.15406,-0.376612 0,-0.231102 0.15406,-0.385171 0.16263,-0.154068 0.4023,-0.154068 0.23965,0 0.39372,0.154068 0.16263,0.145508 0.16263,0.368053 0,0.231102 -0.15407,0.39373 -0.15406,0.154069 -0.40228,0.154069 z m 4.3995,0.830257 q 0.55635,0 0.97577,0.213984 0.42796,0.213985 0.66763,0.650513 0.23966,0.436528 0.23966,1.104157 V 47.5465 h -0.8217 v -2.516452 q 0,-0.659071 -0.32526,-0.992887 -0.3167,-0.333815 -0.89873,-0.333815 -0.43653,0 -0.76179,0.171187 -0.32526,0.171188 -0.50499,0.505003 -0.1712,0.333815 -0.1712,0.830258 V 47.5465 h -0.8217 v -4.536463 h 0.78747 v 1.22399 l -0.12844,-0.325256 q 0.22254,-0.445086 0.68476,-0.693309 0.46219,-0.248222 1.07847,-0.248222 z m 5.39239,6.291133 q -0.62482,0 -1.21543,-0.179746 -0.58203,-0.171189 -0.95008,-0.496444 l 0.39373,-0.633394 q 0.31669,0.273901 0.7789,0.427969 0.4622,0.162627 0.96721,0.162627 0.80458,0 1.18118,-0.376611 0.37663,-0.376612 0.37663,-1.146954 v -0.958642 l 0.0855,-0.898733 -0.0428,-0.907292 v -1.241108 h 0.77889 v 3.920188 q 0,1.198312 -0.59915,1.763229 -0.59916,0.564919 -1.75467,0.564919 z m -0.10276,-1.90018 q -0.65907,0 -1.18118,-0.273899 -0.51356,-0.282459 -0.8217,-0.778901 -0.29959,-0.496444 -0.29959,-1.146956 0,-0.65907 0.29959,-1.146954 0.30814,-0.496442 0.8217,-0.770343 0.52211,-0.2739 1.18118,-0.2739 0.58204,0 1.06137,0.239663 0.47932,0.231103 0.76178,0.718986 0.29102,0.487884 0.29102,1.232548 0,0.736106 -0.29102,1.223989 -0.28246,0.487884 -0.76178,0.736106 -0.47933,0.239661 -1.06137,0.239661 z m 0.0941,-0.718985 q 0.45364,0 0.80458,-0.188307 0.35093,-0.188305 0.54779,-0.52212 0.20542,-0.333816 0.20542,-0.770344 0,-0.436527 -0.20542,-0.770342 -0.19686,-0.333814 -0.54779,-0.513562 -0.35094,-0.188305 -0.80458,-0.188305 -0.45365,0 -0.81315,0.188305 -0.35093,0.179748 -0.55636,0.513562 -0.19685,0.333815 -0.19685,0.770342 0,0.436528 0.19685,0.770344 0.20543,0.333815 0.55636,0.52212 0.3595,0.188307 0.81315,0.188307 z"
       id="text4"
       aria-label="Next Level Printing" /></g></svg>
